<svg xmlns="http://www.w3.org/2000/svg" width="102.291" height="68.286" viewBox="0 0 102.291 68.286">
    <defs>
        <style>
            .cls-1{fill:#fff}.cls-2{fill:#50494f}.cls-3{fill:#ff671d}.cls-4{fill:#00abc8}.cls-5{fill:#929497}
        </style>
    </defs>
    <g id="Logo_-_reverse" data-name="Logo - reverse" transform="translate(51.145 34.143)">
        <g id="Logo_-_reverse-2" data-name="Logo - reverse" transform="translate(-51.145 -34.143)">
            <g id="Group_2503" data-name="Group 2503" transform="translate(0 52.925)">
                <path id="Path_39062" d="M0 249.432a.853.853 0 0 1 .832-.832h.192a.939.939 0 0 1 .789.448l5.4 8.106 5.4-8.106a.917.917 0 0 1 .789-.448h.192a.853.853 0 0 1 .832.832V263a.853.853 0 0 1-.832.853.875.875 0 0 1-.853-.853v-11.264l-4.821 7.1a.832.832 0 0 1-.7.427.875.875 0 0 1-.725-.427l-4.821-7.082v11.264a.832.832 0 1 1-1.664 0z" class="cls-1" data-name="Path 39062" transform="translate(0 -248.493)"/>
                <path id="Path_39063" d="M108.7 249.253a.853.853 0 0 1 1.707 0v13.589a.853.853 0 1 1-1.707 0z" class="cls-1" data-name="Path 39063" transform="translate(-85.512 -248.335)"/>
                <path id="Path_39064" d="M157.6 249.275a.853.853 0 0 1 .832-.832h.235a1.031 1.031 0 0 1 .853.491l9.173 11.69v-11.392a.832.832 0 1 1 1.664 0v13.631a.768.768 0 0 1-.768.789h-.089a1.155 1.155 0 0 1-.875-.512l-9.365-11.968v11.69a.832.832 0 1 1-1.664 0z" class="cls-1" data-name="Path 39064" transform="translate(-123.98 -248.335)"/>
                <path id="Path_39065" d="M258.5 249.253a.853.853 0 1 1 1.707 0v13.589a.853.853 0 1 1-1.707 0z" class="cls-1" data-name="Path 39065" transform="translate(-203.355 -248.335)"/>
                <path id="Path_39066" d="M307.4 249.432a.853.853 0 0 1 .832-.832h.192a.939.939 0 0 1 .789.448l5.4 8.106 5.4-8.106a.917.917 0 0 1 .789-.448h.192a.853.853 0 0 1 .832.832V263a.853.853 0 0 1-.832.853.875.875 0 0 1-.853-.853v-11.264l-4.842 7.1a.832.832 0 0 1-.7.427.875.875 0 0 1-.725-.427l-4.8-7.082v11.264a.832.832 0 0 1-1.664 0z" class="cls-1" data-name="Path 39066" transform="translate(-241.824 -248.493)"/>
                <path id="Path_39067" d="M410.707 262.242l6.122-13.4a1.109 1.109 0 0 1 1.088-.747H418a1.088 1.088 0 0 1 1.067.747l6.122 13.375a1.152 1.152 0 0 1 .107.427.811.811 0 0 1-.811.811.939.939 0 0 1-.832-.619l-1.579-3.477h-8.32l-1.579 3.52a.853.853 0 0 1-.811.576.768.768 0 0 1-.768-.768.981.981 0 0 1 .111-.445zm10.688-4.416l-3.477-7.722-3.477 7.722z" class="cls-1" data-name="Path 39067" transform="translate(-323.009 -248.098)"/>
            </g>
            <g id="Group_2504" data-name="Group 2504" transform="translate(29.183)">
                <path id="Path_39068" d="M236.6 41.3h9.493l7.36 30.8h-9.493z" class="cls-2" data-name="Path 39068" transform="translate(-215.31 -32.49)"/>
                <path id="Path_39069" d="M184.514 16.5l6.165 36.095h-9.514L175 16.5z" class="cls-2" data-name="Path 39069" transform="translate(-166.851 -12.98)"/>
                <path id="Path_39070" d="M136.8 39.614h9.493l8.17-36.095L145.76 0z" class="cls-3" data-name="Path 39070" transform="translate(-136.8)"/>
                <path id="Path_39071" d="M203.9 59.2h9.514l6.954-30.8-8.7-3.5z" class="cls-4" data-name="Path 39071" transform="translate(-189.586 -19.588)"/>
                <path id="Path_39072" d="M277.649 49.7L271.1 78.712h9.493l5.76-25.492z" class="cls-5" data-name="Path 39072" transform="translate(-242.45 -39.098)"/>
            </g>
        </g>
    </g>
</svg>
